<svg xmlns="http://www.w3.org/2000/svg" version="1.0" width="16" height="16" viewBox="0 0 1000.000000 1000.000000" preserveAspectRatio="xMidYMid meet">
    <g transform="translate(0.000000,1000.000000) scale(0.100000,-0.100000)" fill="#000000" stroke="none">
        <path d="M1535 9910 c-656 -8 -651 -7 -815 -71 -159 -61 -337 -202 -443 -350 -61 -87 -132 -236 -158 -335 -19 -74 -21 -124 -31 -729 -12 -813 -3 -7317 11 -7455 35 -355 300 -680 665 -818 79 -30 108 -36 221 -43 72 -4 720 -13 1440 -20 1445 -13 5479 -6 6230 11 480 10 484 11 642 78 219 91 440 314 529 533 64 155 63 153 76 689 16 677 16 6525 0 7211 -11 493 -12 496 -38 580 -66 211 -197 397 -373 530 -82 61 -222 131 -321 160 -71 20 -104 22 -605 29 -636 10 -6180 9 -7030 0z m1707 -4678 l872 -1694 37 74 c21 40 413 802 872 1693 l834 1620 392 3 c243 1 391 -1 389 -7 -1 -5 -484 -896 -1073 -1980 l-1070 -1971 -380 0 -380 0 -1073 1974 c-589 1085 -1072 1976 -1072 1980 0 3 176 5 390 4 l391 -3 871 -1693z m4898 -282 l0 -1980 -370 0 -370 0 0 1980 0 1980 370 0 370 0 0 -1980z" />
    </g>
</svg>
